<mxfile host="app.diagrams.net" modified="2024-01-17T18:24:55.777Z" agent="Mozilla/5.0 (Windows NT 10.0; Win64; x64) AppleWebKit/537.36 (KHTML, like Gecko) Chrome/120.0.0.0 Safari/537.36" version="22.1.18" etag="oOq04BE4lMoZj3kvJqLK" type="github">
  <diagram name="Page-1" id="5CPBQFOkfCT0_sk7VlvP">
    <mxGraphModel>
      <root>
        <mxCell id="0" />
        <mxCell id="1" parent="0" />
      </root>
    </mxGraphModel>
  </diagram>
</mxfile>
